<?xml version="1.0" encoding="utf-8"?>
<!-- Generator: Adobe Illustrator 26.0.2, SVG Export Plug-In . SVG Version: 6.00 Build 0)  -->
<svg version="1.1" xmlns="http://www.w3.org/2000/svg" xmlns:xlink="http://www.w3.org/1999/xlink" x="0px" y="0px"
	 viewBox="0 0 278.41 300" style="enable-background:new 0 0 278.41 300;" xml:space="preserve">
<style type="text/css">
	.st0{fill:#00AEEF;}
</style>
<g id="Logo__x26__Wordmark">
	<path class="st0" d="M277.64,103.3c1.36,14.21,0.69,26.1-0.24,36.83c-1.56,17.98-4.56,28.74-8.89,40.26
		c-4.47,11.93-9.94,23.31-15.81,32.92l-0.35,0.58c-1.88,3.07-3.26,5.32-4.04,6.37c-0.13-0.15-0.28-0.31-0.45-0.49
		c-0.71-0.74-1.77-1.85-3.41-3.48c-2.4-2.4-9.12-11.18-11.01-13.88c-1.67-2.36-5.34-7.94-7.33-12.17l-1.02-2.17l-1.88,1.48
		c-2,1.59-3.17,4.35-3.12,7.41c0.04,2.69,0.66,5.81,2.29,11.51c1.79,6.22,4.92,13.65,8.56,20.38c0.44,0.83,0.89,1.64,1.31,2.39
		c2.51,4.5,3.48,6.57,2.29,7.43c-0.19,0.14-0.42,0.16-0.55,0.16c-1.49,0-4.23-1.42-7.35-3.8c-2.77-2.11-10.19-8.39-19.18-20.94
		c-6.78-9.5-12.16-18.71-17.45-29.87l-0.78-1.64c0,0-1.14,0.4-2.19,1.05c-0.74,0.45-1.36,0.98-1.79,1.77
		c-1.03,1.85-1.36,4.29-1.01,7.07c0.82,6.68,4.74,16.88,7.9,24.24c5.34,12.43,15.16,26.41,22.46,35.95
		c0.28,0.37,0.62,0.76,0.96,1.16c0.38,0.46,1.03,1.21,1.35,1.71c-0.64,0.65-2.13,1.86-3.93,3.35l-2.69,2.19
		c-9.83,8.1-19.43,14.62-31.1,21.14c-9.12,5.1-27.68,14.52-39.98,17.81c-12.31-3.29-30.86-12.71-39.98-17.81
		c-11.81-6.59-21.11-12.92-31.11-21.14l-2.76-2.25c-1.8-1.47-3.28-2.69-3.89-3.32c0.29-0.36,2.05-2.47,2.34-2.83
		c7.29-9.52,17.11-23.49,22.46-35.95c3.15-7.35,7.09-17.52,7.92-24.25c0.35-2.78,0-5.21-1.02-7.05c-0.52-0.94-1.39-1.72-2.31-2.12
		l-1.67-0.7l-0.78,1.64c-5.29,11.15-10.68,20.37-17.45,29.87c-8.96,12.54-16.39,18.82-19.17,20.94c-3.07,2.35-5.88,3.8-7.35,3.8
		c-0.13,0-0.36-0.01-0.47-0.1l-0.27-0.22c-0.9-0.95,0.12-3.03,2.5-7.3c0.42-0.76,0.85-1.54,1.3-2.36
		c3.64-6.74,6.75-14.17,8.54-20.37c1.64-5.72,2.26-8.84,2.3-11.52c0.05-3.05-1.12-5.82-3.13-7.41l-1.88-1.48l-1.01,2.17
		c-1.85,3.95-5.4,9.44-7.33,12.17c-1.91,2.71-8.64,11.51-11.01,13.88c-1.64,1.64-2.7,2.75-3.41,3.5c-0.17,0.18-0.32,0.33-0.45,0.47
		c-0.8-1.08-2.25-3.44-4.23-6.67c-6.04-9.88-11.51-21.26-15.97-33.19c-4.33-11.53-7.33-22.29-8.89-40.26
		c-0.94-10.79-1.62-22.73-0.24-36.86c1.39-14.42,5-28.03,10.17-38.33c7.3-14.57,16.4-23.2,27.8-26.4c2.86-0.8,7.31-1.75,12.34-1.75
		c9.06,0,16.29,2.98,21.5,8.86c2.89,3.24,4.02,8.18,2.9,12.58c-1.01,3.95-3.78,6.52-7.47,8.25c-0.95,0.45-2.04,0.72-2.04,0.72
		s0.12,0.51,1.09,2.09c3.64,5.87,10.73,8.95,20.47,8.95c2.27,0,4.64-0.17,7.04-0.5c13.86-1.93,20.1-10.68,22.38-27.53
		c0.89-6.58,1.74-12.11-2.5-18.95c-2.97-4.8-11.45-7.63-17.65-7.61c-5.55,0.03-8.48,1.47-10.25,3.32c-0.08-0.27-0.47-0.73-0.57-0.98
		c-0.63-1.5-1.19-3.2-0.64-6.24c0.65-3.6,3.51-6.97,5.02-8.16c3.23-2.59,6.88-5.05,12.79-6.29c2.8-0.59,5.75-1.12,9.06-1.12
		c0.7,0,3.05-0.01,4.1,0.07c0.46,0.03,0.53-0.17,0.86-0.58c2.03-2.45,5.22-3.79,11.03-3.66c4.47,0.1,10.43,0.33,15.12,1.83
		c4.17,1.34,6.28,2.62,8.71,4.2c2.82,1.82,5.75,5.64,7,9.28c1.86,5.43,2.93,12.19,3.21,20c0.32,15.56,2.53,25.01,6.89,30.64
		c7.03,9.08,13.04,10.98,20.3,11.44l0.79,0.01c13.71,0,18.71-4.34,20.94-7.65c0,0,1.21-1.7,1.71-2.67
		c-1.74-0.32-2.85-0.73-2.85-0.73c-3.49-1.31-5.96-4.1-6.97-7.86c-1.21-4.48-0.12-9.39,2.82-12.81c6.5-7.55,16.18-8.78,21.36-8.85
		l0.59,0c4.06,0,8.02,0.6,11.77,1.79c5.11,1.61,9.53,3.88,13.15,6.75c7.11,5.69,11.6,13.46,14.71,19.58
		C272.57,74.99,276.38,89.33,277.64,103.3z"/>
</g>
<g id="Clearspace">
</g>
</svg>
